<svg width="3900" height="300" viewBox="0 0 3900 300" fill="none" xmlns="http://www.w3.org/2000/svg">
<circle cx="150" cy="150" r="15.5" fill="white" stroke="#A878B4" stroke-width="3"/>
<circle cx="144" cy="158" r="1.5" fill="#A878B4" stroke="#A878B4" stroke-width="3"/>
<circle cx="150" cy="142" r="1.5" fill="#A878B4" stroke="#A878B4" stroke-width="3"/>
<circle cx="150" cy="151" r="3.5" fill="#F0D8F5" stroke="#F0D8F5" stroke-width="3"/>
<circle cx="158" cy="145" r="1.5" fill="#A878B4" stroke="#A878B4" stroke-width="3"/>
<circle cx="142" cy="145" r="1.5" fill="#A878B4" stroke="#A878B4" stroke-width="3"/>
<circle cx="156" cy="158" r="1.5" fill="#A878B4" stroke="#A878B4" stroke-width="3"/>
<ellipse cx="449.5" cy="102.5" rx="15.5" ry="31.5" transform="rotate(-180 449.5 102.5)" fill="url(#paint0_linear_103_934)"/>
<circle cx="450" cy="150" r="15.5" fill="white" stroke="#A878B4" stroke-width="3"/>
<circle cx="444" cy="158" r="1.5" fill="#A878B4" stroke="#A878B4" stroke-width="3"/>
<circle cx="450" cy="142" r="1.5" fill="#A878B4" stroke="#A878B4" stroke-width="3"/>
<circle cx="450" cy="151" r="3.5" fill="#F0D8F5" stroke="#F0D8F5" stroke-width="3"/>
<circle cx="458" cy="145" r="1.5" fill="#A878B4" stroke="#A878B4" stroke-width="3"/>
<circle cx="442" cy="145" r="1.5" fill="#A878B4" stroke="#A878B4" stroke-width="3"/>
<circle cx="456" cy="158" r="1.5" fill="#A878B4" stroke="#A878B4" stroke-width="3"/>
<ellipse cx="749.5" cy="102.5" rx="15.5" ry="31.5" transform="rotate(-180 749.5 102.5)" fill="url(#paint1_linear_103_934)"/>
<ellipse cx="782.009" cy="116.875" rx="15.7" ry="31.4" transform="rotate(-135.054 782.009 116.875)" fill="url(#paint2_linear_103_934)"/>
<circle cx="750" cy="150" r="15.5" fill="white" stroke="#A878B4" stroke-width="3"/>
<circle cx="744" cy="158" r="1.5" fill="#A878B4" stroke="#A878B4" stroke-width="3"/>
<circle cx="750" cy="142" r="1.5" fill="#A878B4" stroke="#A878B4" stroke-width="3"/>
<circle cx="750" cy="151" r="3.5" fill="#F0D8F5" stroke="#F0D8F5" stroke-width="3"/>
<circle cx="758" cy="145" r="1.5" fill="#A878B4" stroke="#A878B4" stroke-width="3"/>
<circle cx="742" cy="145" r="1.5" fill="#A878B4" stroke="#A878B4" stroke-width="3"/>
<circle cx="756" cy="158" r="1.5" fill="#A878B4" stroke="#A878B4" stroke-width="3"/>
<ellipse cx="1049.5" cy="102.5" rx="15.5" ry="31.5" transform="rotate(-180 1049.5 102.5)" fill="url(#paint3_linear_103_934)"/>
<ellipse cx="1082.01" cy="116.875" rx="15.7" ry="31.4" transform="rotate(-135.054 1082.01 116.875)" fill="url(#paint4_linear_103_934)"/>
<ellipse cx="1096.5" cy="149.5" rx="15.5" ry="31.5" transform="rotate(-90 1096.5 149.5)" fill="url(#paint5_linear_103_934)"/>
<circle cx="1050" cy="150" r="15.5" fill="white" stroke="#A878B4" stroke-width="3"/>
<circle cx="1044" cy="158" r="1.5" fill="#A878B4" stroke="#A878B4" stroke-width="3"/>
<circle cx="1050" cy="142" r="1.5" fill="#A878B4" stroke="#A878B4" stroke-width="3"/>
<circle cx="1050" cy="151" r="3.5" fill="#F0D8F5" stroke="#F0D8F5" stroke-width="3"/>
<circle cx="1058" cy="145" r="1.5" fill="#A878B4" stroke="#A878B4" stroke-width="3"/>
<circle cx="1042" cy="145" r="1.5" fill="#A878B4" stroke="#A878B4" stroke-width="3"/>
<circle cx="1056" cy="158" r="1.5" fill="#A878B4" stroke="#A878B4" stroke-width="3"/>
<ellipse cx="1349.5" cy="102.5" rx="15.5" ry="31.5" transform="rotate(-180 1349.5 102.5)" fill="url(#paint6_linear_103_934)"/>
<ellipse cx="1382.01" cy="116.875" rx="15.7" ry="31.4" transform="rotate(-135.054 1382.01 116.875)" fill="url(#paint7_linear_103_934)"/>
<ellipse cx="1381.99" cy="182.832" rx="15.7" ry="31.4" transform="rotate(135.14 1381.99 182.832)" fill="url(#paint8_linear_103_934)"/>
<ellipse cx="1396.5" cy="149.5" rx="15.5" ry="31.5" transform="rotate(-90 1396.5 149.5)" fill="url(#paint9_linear_103_934)"/>
<circle cx="1350" cy="150" r="15.5" fill="white" stroke="#A878B4" stroke-width="3"/>
<circle cx="1344" cy="158" r="1.5" fill="#A878B4" stroke="#A878B4" stroke-width="3"/>
<circle cx="1350" cy="142" r="1.5" fill="#A878B4" stroke="#A878B4" stroke-width="3"/>
<circle cx="1350" cy="151" r="3.5" fill="#F0D8F5" stroke="#F0D8F5" stroke-width="3"/>
<circle cx="1358" cy="145" r="1.5" fill="#A878B4" stroke="#A878B4" stroke-width="3"/>
<circle cx="1342" cy="145" r="1.5" fill="#A878B4" stroke="#A878B4" stroke-width="3"/>
<circle cx="1356" cy="158" r="1.5" fill="#A878B4" stroke="#A878B4" stroke-width="3"/>
<ellipse cx="1649.5" cy="196.5" rx="15.5" ry="31.5" transform="rotate(-180 1649.5 196.5)" fill="url(#paint10_linear_103_934)"/>
<ellipse cx="1649.5" cy="102.5" rx="15.5" ry="31.5" transform="rotate(-180 1649.5 102.5)" fill="url(#paint11_linear_103_934)"/>
<ellipse cx="1682.01" cy="116.875" rx="15.7" ry="31.4" transform="rotate(-135.054 1682.01 116.875)" fill="url(#paint12_linear_103_934)"/>
<ellipse cx="1681.99" cy="182.832" rx="15.7" ry="31.4" transform="rotate(135.14 1681.99 182.832)" fill="url(#paint13_linear_103_934)"/>
<ellipse cx="1696.5" cy="149.5" rx="15.5" ry="31.5" transform="rotate(-90 1696.5 149.5)" fill="url(#paint14_linear_103_934)"/>
<circle cx="1650" cy="150" r="15.5" fill="white" stroke="#A878B4" stroke-width="3"/>
<circle cx="1644" cy="158" r="1.5" fill="#A878B4" stroke="#A878B4" stroke-width="3"/>
<circle cx="1650" cy="142" r="1.5" fill="#A878B4" stroke="#A878B4" stroke-width="3"/>
<circle cx="1650" cy="151" r="3.5" fill="#F0D8F5" stroke="#F0D8F5" stroke-width="3"/>
<circle cx="1658" cy="145" r="1.5" fill="#A878B4" stroke="#A878B4" stroke-width="3"/>
<circle cx="1642" cy="145" r="1.5" fill="#A878B4" stroke="#A878B4" stroke-width="3"/>
<circle cx="1656" cy="158" r="1.5" fill="#A878B4" stroke="#A878B4" stroke-width="3"/>
<ellipse cx="1949.5" cy="196.5" rx="15.5" ry="31.5" transform="rotate(-180 1949.5 196.5)" fill="url(#paint15_linear_103_934)"/>
<ellipse cx="1949.5" cy="102.5" rx="15.5" ry="31.5" transform="rotate(-180 1949.5 102.5)" fill="url(#paint16_linear_103_934)"/>
<ellipse cx="1916.85" cy="182.816" rx="15.7" ry="31.4" transform="rotate(-135.054 1916.85 182.816)" fill="url(#paint17_linear_103_934)"/>
<ellipse cx="1982.01" cy="116.875" rx="15.7" ry="31.4" transform="rotate(-135.054 1982.01 116.875)" fill="url(#paint18_linear_103_934)"/>
<ellipse cx="1981.99" cy="182.832" rx="15.7" ry="31.4" transform="rotate(135.14 1981.99 182.832)" fill="url(#paint19_linear_103_934)"/>
<ellipse cx="1996.06" cy="149.5" rx="15.5" ry="31.5" transform="rotate(-90 1996.06 149.5)" fill="url(#paint20_linear_103_934)"/>
<circle cx="1950" cy="150" r="15.5" fill="white" stroke="#A878B4" stroke-width="3"/>
<circle cx="1944" cy="158" r="1.5" fill="#A878B4" stroke="#A878B4" stroke-width="3"/>
<circle cx="1950" cy="142" r="1.5" fill="#A878B4" stroke="#A878B4" stroke-width="3"/>
<circle cx="1950" cy="151" r="3.5" fill="#F0D8F5" stroke="#F0D8F5" stroke-width="3"/>
<circle cx="1958" cy="145" r="1.5" fill="#A878B4" stroke="#A878B4" stroke-width="3"/>
<circle cx="1942" cy="145" r="1.5" fill="#A878B4" stroke="#A878B4" stroke-width="3"/>
<circle cx="1956" cy="158" r="1.5" fill="#A878B4" stroke="#A878B4" stroke-width="3"/>
<ellipse cx="2249.5" cy="196.5" rx="15.5" ry="31.5" transform="rotate(-180 2249.5 196.5)" fill="url(#paint21_linear_103_934)"/>
<ellipse cx="2249.5" cy="102.5" rx="15.5" ry="31.5" transform="rotate(-180 2249.5 102.5)" fill="url(#paint22_linear_103_934)"/>
<ellipse cx="2216.85" cy="182.816" rx="15.7" ry="31.4" transform="rotate(-135.054 2216.85 182.816)" fill="url(#paint23_linear_103_934)"/>
<ellipse cx="2282.01" cy="116.875" rx="15.7" ry="31.4" transform="rotate(-135.054 2282.01 116.875)" fill="url(#paint24_linear_103_934)"/>
<ellipse cx="2281.99" cy="182.832" rx="15.7" ry="31.4" transform="rotate(135.14 2281.99 182.832)" fill="url(#paint25_linear_103_934)"/>
<ellipse cx="2202.5" cy="149.5" rx="15.5" ry="31.5" transform="rotate(-90 2202.5 149.5)" fill="url(#paint26_linear_103_934)"/>
<ellipse cx="2296.5" cy="149.5" rx="15.5" ry="31.5" transform="rotate(-90 2296.5 149.5)" fill="url(#paint27_linear_103_934)"/>
<circle cx="2250" cy="150" r="15.5" fill="white" stroke="#A878B4" stroke-width="3"/>
<circle cx="2244" cy="158" r="1.5" fill="#A878B4" stroke="#A878B4" stroke-width="3"/>
<circle cx="2250" cy="142" r="1.5" fill="#A878B4" stroke="#A878B4" stroke-width="3"/>
<circle cx="2250" cy="151" r="3.5" fill="#F0D8F5" stroke="#F0D8F5" stroke-width="3"/>
<circle cx="2258" cy="145" r="1.5" fill="#A878B4" stroke="#A878B4" stroke-width="3"/>
<circle cx="2242" cy="145" r="1.5" fill="#A878B4" stroke="#A878B4" stroke-width="3"/>
<circle cx="2256" cy="158" r="1.5" fill="#A878B4" stroke="#A878B4" stroke-width="3"/>
<ellipse cx="2549.5" cy="196.5" rx="15.5" ry="31.5" transform="rotate(-180 2549.5 196.5)" fill="url(#paint28_linear_103_934)"/>
<ellipse cx="2549.5" cy="102.5" rx="15.5" ry="31.5" transform="rotate(-180 2549.5 102.5)" fill="url(#paint29_linear_103_934)"/>
<ellipse cx="2516.85" cy="182.816" rx="15.7" ry="31.4" transform="rotate(-135.054 2516.85 182.816)" fill="url(#paint30_linear_103_934)"/>
<ellipse cx="2582.01" cy="116.875" rx="15.7" ry="31.4" transform="rotate(-135.054 2582.01 116.875)" fill="url(#paint31_linear_103_934)"/>
<ellipse cx="2581.99" cy="182.832" rx="15.7" ry="31.4" transform="rotate(135.14 2581.99 182.832)" fill="url(#paint32_linear_103_934)"/>
<ellipse cx="2516.84" cy="116.892" rx="15.7" ry="31.4" transform="rotate(135.14 2516.84 116.892)" fill="url(#paint33_linear_103_934)"/>
<ellipse cx="2502.5" cy="149.5" rx="15.5" ry="31.5" transform="rotate(-90 2502.5 149.5)" fill="url(#paint34_linear_103_934)"/>
<ellipse cx="2596.5" cy="149.5" rx="15.5" ry="31.5" transform="rotate(-90 2596.5 149.5)" fill="url(#paint35_linear_103_934)"/>
<circle cx="2550" cy="150" r="15.5" fill="white" stroke="#A878B4" stroke-width="3"/>
<circle cx="2544" cy="158" r="1.5" fill="#A878B4" stroke="#A878B4" stroke-width="3"/>
<circle cx="2550" cy="142" r="1.5" fill="#A878B4" stroke="#A878B4" stroke-width="3"/>
<circle cx="2550" cy="151" r="3.5" fill="#F0D8F5" stroke="#F0D8F5" stroke-width="3"/>
<circle cx="2558" cy="145" r="1.5" fill="#A878B4" stroke="#A878B4" stroke-width="3"/>
<circle cx="2542" cy="145" r="1.5" fill="#A878B4" stroke="#A878B4" stroke-width="3"/>
<circle cx="2556" cy="158" r="1.5" fill="#A878B4" stroke="#A878B4" stroke-width="3"/>
<ellipse cx="2849.5" cy="205.5" rx="15.5" ry="31.5" transform="rotate(-180 2849.5 205.5)" fill="url(#paint36_linear_103_934)"/>
<ellipse cx="2849.5" cy="91.5" rx="15.5" ry="31.5" transform="rotate(-180 2849.5 91.5)" fill="url(#paint37_linear_103_934)"/>
<ellipse cx="2806.85" cy="191.816" rx="15.7" ry="31.4" transform="rotate(-135.054 2806.85 191.816)" fill="url(#paint38_linear_103_934)"/>
<ellipse cx="2892.01" cy="105.875" rx="15.7" ry="31.4" transform="rotate(-135.054 2892.01 105.875)" fill="url(#paint39_linear_103_934)"/>
<ellipse cx="2891.99" cy="191.832" rx="15.7" ry="31.4" transform="rotate(135.14 2891.99 191.832)" fill="url(#paint40_linear_103_934)"/>
<ellipse cx="2806.84" cy="105.892" rx="15.7" ry="31.4" transform="rotate(135.14 2806.84 105.892)" fill="url(#paint41_linear_103_934)"/>
<ellipse cx="2792.5" cy="148.5" rx="15.5" ry="31.5" transform="rotate(-90 2792.5 148.5)" fill="url(#paint42_linear_103_934)"/>
<ellipse cx="2906.5" cy="148.5" rx="15.5" ry="31.5" transform="rotate(-90 2906.5 148.5)" fill="url(#paint43_linear_103_934)"/>
<circle cx="2850" cy="148" r="15.5" fill="white" stroke="#A878B4" stroke-width="3"/>
<circle cx="2844" cy="157" r="1.5" fill="#A878B4" stroke="#A878B4" stroke-width="3"/>
<circle cx="2850" cy="141" r="1.5" fill="#A878B4" stroke="#A878B4" stroke-width="3"/>
<circle cx="2850" cy="150" r="3.5" fill="#F0D8F5" stroke="#F0D8F5" stroke-width="3"/>
<circle cx="2858" cy="144" r="1.5" fill="#A878B4" stroke="#A878B4" stroke-width="3"/>
<circle cx="2842" cy="144" r="1.5" fill="#A878B4" stroke="#A878B4" stroke-width="3"/>
<circle cx="2856" cy="157" r="1.5" fill="#A878B4" stroke="#A878B4" stroke-width="3"/>
<ellipse cx="3149.5" cy="215.5" rx="15.5" ry="31.5" transform="rotate(-180 3149.5 215.5)" fill="url(#paint44_linear_103_934)"/>
<ellipse cx="3149.5" cy="81.5" rx="15.5" ry="31.5" transform="rotate(-180 3149.5 81.5)" fill="url(#paint45_linear_103_934)"/>
<ellipse cx="3096.85" cy="201.816" rx="15.7" ry="31.4" transform="rotate(-135.054 3096.85 201.816)" fill="url(#paint46_linear_103_934)"/>
<ellipse cx="3202.01" cy="95.8753" rx="15.7" ry="31.4" transform="rotate(-135.054 3202.01 95.8753)" fill="url(#paint47_linear_103_934)"/>
<ellipse cx="3201.99" cy="201.832" rx="15.7" ry="31.4" transform="rotate(135.14 3201.99 201.832)" fill="url(#paint48_linear_103_934)"/>
<ellipse cx="3096.84" cy="95.892" rx="15.7" ry="31.4" transform="rotate(135.14 3096.84 95.892)" fill="url(#paint49_linear_103_934)"/>
<ellipse cx="3082.5" cy="148.5" rx="15.5" ry="31.5" transform="rotate(-90 3082.5 148.5)" fill="url(#paint50_linear_103_934)"/>
<ellipse cx="3216.5" cy="148.5" rx="15.5" ry="31.5" transform="rotate(-90 3216.5 148.5)" fill="url(#paint51_linear_103_934)"/>
<circle cx="3150" cy="148" r="15.5" fill="white" stroke="#A878B4" stroke-width="3"/>
<circle cx="3144" cy="157" r="1.5" fill="#A878B4" stroke="#A878B4" stroke-width="3"/>
<circle cx="3150" cy="141" r="1.5" fill="#A878B4" stroke="#A878B4" stroke-width="3"/>
<circle cx="3150" cy="150" r="3.5" fill="#F0D8F5" stroke="#F0D8F5" stroke-width="3"/>
<circle cx="3158" cy="144" r="1.5" fill="#A878B4" stroke="#A878B4" stroke-width="3"/>
<circle cx="3142" cy="144" r="1.5" fill="#A878B4" stroke="#A878B4" stroke-width="3"/>
<circle cx="3156" cy="157" r="1.5" fill="#A878B4" stroke="#A878B4" stroke-width="3"/>
<ellipse cx="3449.5" cy="225.5" rx="15.5" ry="31.5" transform="rotate(-180 3449.5 225.5)" fill="url(#paint52_linear_103_934)"/>
<ellipse cx="3449.5" cy="71.5" rx="15.5" ry="31.5" transform="rotate(-180 3449.5 71.5)" fill="url(#paint53_linear_103_934)"/>
<ellipse cx="3386.85" cy="211.816" rx="15.7" ry="31.4" transform="rotate(-135.054 3386.85 211.816)" fill="url(#paint54_linear_103_934)"/>
<ellipse cx="3512.01" cy="85.8753" rx="15.7" ry="31.4" transform="rotate(-135.054 3512.01 85.8753)" fill="url(#paint55_linear_103_934)"/>
<ellipse cx="3511.99" cy="211.832" rx="15.7" ry="31.4" transform="rotate(135.14 3511.99 211.832)" fill="url(#paint56_linear_103_934)"/>
<ellipse cx="3386.84" cy="85.892" rx="15.7" ry="31.4" transform="rotate(135.14 3386.84 85.892)" fill="url(#paint57_linear_103_934)"/>
<ellipse cx="3372.5" cy="148.5" rx="15.5" ry="31.5" transform="rotate(-90 3372.5 148.5)" fill="url(#paint58_linear_103_934)"/>
<ellipse cx="3526.5" cy="148.5" rx="15.5" ry="31.5" transform="rotate(-90 3526.5 148.5)" fill="url(#paint59_linear_103_934)"/>
<circle cx="3450" cy="149" r="15.5" fill="white" stroke="#A878B4" stroke-width="3"/>
<circle cx="3444" cy="157" r="1.5" fill="#A878B4" stroke="#A878B4" stroke-width="3"/>
<circle cx="3450" cy="141" r="1.5" fill="#A878B4" stroke="#A878B4" stroke-width="3"/>
<circle cx="3450" cy="150" r="3.5" fill="#F0D8F5" stroke="#F0D8F5" stroke-width="3"/>
<circle cx="3458" cy="144" r="1.5" fill="#A878B4" stroke="#A878B4" stroke-width="3"/>
<circle cx="3442" cy="144" r="1.5" fill="#A878B4" stroke="#A878B4" stroke-width="3"/>
<circle cx="3456" cy="157" r="1.5" fill="#A878B4" stroke="#A878B4" stroke-width="3"/>
<circle cx="3750" cy="150" r="15.5" fill="white" stroke="#A878B4" stroke-width="3"/>
<circle cx="3744" cy="158" r="1.5" fill="#A878B4" stroke="#A878B4" stroke-width="3"/>
<circle cx="3750" cy="142" r="1.5" fill="#A878B4" stroke="#A878B4" stroke-width="3"/>
<circle cx="3750" cy="151" r="3.5" fill="#F0D8F5" stroke="#F0D8F5" stroke-width="3"/>
<circle cx="3758" cy="145" r="1.5" fill="#A878B4" stroke="#A878B4" stroke-width="3"/>
<circle cx="3742" cy="145" r="1.5" fill="#A878B4" stroke="#A878B4" stroke-width="3"/>
<circle cx="3756" cy="158" r="1.5" fill="#A878B4" stroke="#A878B4" stroke-width="3"/>
<defs>
<linearGradient id="paint0_linear_103_934" x1="449.5" y1="134" x2="449.5" y2="71" gradientUnits="userSpaceOnUse">
<stop stop-color="#F0D8F5"/>
<stop offset="0.458654" stop-color="#CFACD7"/>
<stop offset="1" stop-color="#A878B4"/>
</linearGradient>
<linearGradient id="paint1_linear_103_934" x1="749.5" y1="134" x2="749.5" y2="71" gradientUnits="userSpaceOnUse">
<stop stop-color="#F0D8F5"/>
<stop offset="0.458654" stop-color="#CFACD7"/>
<stop offset="1" stop-color="#A878B4"/>
</linearGradient>
<linearGradient id="paint2_linear_103_934" x1="782.009" y1="148.275" x2="782.009" y2="85.4753" gradientUnits="userSpaceOnUse">
<stop stop-color="#F0D8F5"/>
<stop offset="0.458654" stop-color="#CFACD7"/>
<stop offset="1" stop-color="#A878B4"/>
</linearGradient>
<linearGradient id="paint3_linear_103_934" x1="1049.5" y1="134" x2="1049.5" y2="71" gradientUnits="userSpaceOnUse">
<stop stop-color="#F0D8F5"/>
<stop offset="0.458654" stop-color="#CFACD7"/>
<stop offset="1" stop-color="#A878B4"/>
</linearGradient>
<linearGradient id="paint4_linear_103_934" x1="1082.01" y1="148.275" x2="1082.01" y2="85.4753" gradientUnits="userSpaceOnUse">
<stop stop-color="#F0D8F5"/>
<stop offset="0.458654" stop-color="#CFACD7"/>
<stop offset="1" stop-color="#A878B4"/>
</linearGradient>
<linearGradient id="paint5_linear_103_934" x1="1096.5" y1="181" x2="1096.5" y2="118" gradientUnits="userSpaceOnUse">
<stop stop-color="#F0D8F5"/>
<stop offset="0.458654" stop-color="#CFACD7"/>
<stop offset="1" stop-color="#A878B4"/>
</linearGradient>
<linearGradient id="paint6_linear_103_934" x1="1349.5" y1="134" x2="1349.5" y2="71" gradientUnits="userSpaceOnUse">
<stop stop-color="#F0D8F5"/>
<stop offset="0.458654" stop-color="#CFACD7"/>
<stop offset="1" stop-color="#A878B4"/>
</linearGradient>
<linearGradient id="paint7_linear_103_934" x1="1382.01" y1="148.275" x2="1382.01" y2="85.4753" gradientUnits="userSpaceOnUse">
<stop stop-color="#F0D8F5"/>
<stop offset="0.458654" stop-color="#CFACD7"/>
<stop offset="1" stop-color="#A878B4"/>
</linearGradient>
<linearGradient id="paint8_linear_103_934" x1="1381.99" y1="214.232" x2="1381.99" y2="151.432" gradientUnits="userSpaceOnUse">
<stop stop-color="#A878B4"/>
<stop offset="0.445794" stop-color="#C8A3D1"/>
<stop offset="1" stop-color="#F0D8F5"/>
</linearGradient>
<linearGradient id="paint9_linear_103_934" x1="1396.5" y1="181" x2="1396.5" y2="118" gradientUnits="userSpaceOnUse">
<stop stop-color="#F0D8F5"/>
<stop offset="0.458654" stop-color="#CFACD7"/>
<stop offset="1" stop-color="#A878B4"/>
</linearGradient>
<linearGradient id="paint10_linear_103_934" x1="1649.5" y1="228" x2="1649.5" y2="165" gradientUnits="userSpaceOnUse">
<stop stop-color="#A878B4"/>
<stop offset="0.445794" stop-color="#C8A3D1"/>
<stop offset="1" stop-color="#F0D8F5"/>
</linearGradient>
<linearGradient id="paint11_linear_103_934" x1="1649.5" y1="134" x2="1649.5" y2="71" gradientUnits="userSpaceOnUse">
<stop stop-color="#F0D8F5"/>
<stop offset="0.458654" stop-color="#CFACD7"/>
<stop offset="1" stop-color="#A878B4"/>
</linearGradient>
<linearGradient id="paint12_linear_103_934" x1="1682.01" y1="148.275" x2="1682.01" y2="85.4753" gradientUnits="userSpaceOnUse">
<stop stop-color="#F0D8F5"/>
<stop offset="0.458654" stop-color="#CFACD7"/>
<stop offset="1" stop-color="#A878B4"/>
</linearGradient>
<linearGradient id="paint13_linear_103_934" x1="1681.99" y1="214.232" x2="1681.99" y2="151.432" gradientUnits="userSpaceOnUse">
<stop stop-color="#A878B4"/>
<stop offset="0.445794" stop-color="#C8A3D1"/>
<stop offset="1" stop-color="#F0D8F5"/>
</linearGradient>
<linearGradient id="paint14_linear_103_934" x1="1696.5" y1="181" x2="1696.5" y2="118" gradientUnits="userSpaceOnUse">
<stop stop-color="#F0D8F5"/>
<stop offset="0.458654" stop-color="#CFACD7"/>
<stop offset="1" stop-color="#A878B4"/>
</linearGradient>
<linearGradient id="paint15_linear_103_934" x1="1949.5" y1="228" x2="1949.5" y2="165" gradientUnits="userSpaceOnUse">
<stop stop-color="#A878B4"/>
<stop offset="0.445794" stop-color="#C8A3D1"/>
<stop offset="1" stop-color="#F0D8F5"/>
</linearGradient>
<linearGradient id="paint16_linear_103_934" x1="1949.5" y1="134" x2="1949.5" y2="71" gradientUnits="userSpaceOnUse">
<stop stop-color="#F0D8F5"/>
<stop offset="0.458654" stop-color="#CFACD7"/>
<stop offset="1" stop-color="#A878B4"/>
</linearGradient>
<linearGradient id="paint17_linear_103_934" x1="1916.85" y1="214.216" x2="1916.85" y2="151.416" gradientUnits="userSpaceOnUse">
<stop stop-color="#A878B4"/>
<stop offset="0.445794" stop-color="#C8A3D1"/>
<stop offset="1" stop-color="#F0D8F5"/>
</linearGradient>
<linearGradient id="paint18_linear_103_934" x1="1982.01" y1="148.275" x2="1982.01" y2="85.4753" gradientUnits="userSpaceOnUse">
<stop stop-color="#F0D8F5"/>
<stop offset="0.458654" stop-color="#CFACD7"/>
<stop offset="1" stop-color="#A878B4"/>
</linearGradient>
<linearGradient id="paint19_linear_103_934" x1="1981.99" y1="214.232" x2="1981.99" y2="151.432" gradientUnits="userSpaceOnUse">
<stop stop-color="#A878B4"/>
<stop offset="0.445794" stop-color="#C8A3D1"/>
<stop offset="1" stop-color="#F0D8F5"/>
</linearGradient>
<linearGradient id="paint20_linear_103_934" x1="1996.06" y1="181" x2="1996.06" y2="118" gradientUnits="userSpaceOnUse">
<stop stop-color="#F0D8F5"/>
<stop offset="0.458654" stop-color="#CFACD7"/>
<stop offset="1" stop-color="#A878B4"/>
</linearGradient>
<linearGradient id="paint21_linear_103_934" x1="2249.5" y1="228" x2="2249.5" y2="165" gradientUnits="userSpaceOnUse">
<stop stop-color="#A878B4"/>
<stop offset="0.445794" stop-color="#C8A3D1"/>
<stop offset="1" stop-color="#F0D8F5"/>
</linearGradient>
<linearGradient id="paint22_linear_103_934" x1="2249.5" y1="134" x2="2249.5" y2="71" gradientUnits="userSpaceOnUse">
<stop stop-color="#F0D8F5"/>
<stop offset="0.458654" stop-color="#CFACD7"/>
<stop offset="1" stop-color="#A878B4"/>
</linearGradient>
<linearGradient id="paint23_linear_103_934" x1="2216.85" y1="214.216" x2="2216.85" y2="151.416" gradientUnits="userSpaceOnUse">
<stop stop-color="#A878B4"/>
<stop offset="0.445794" stop-color="#C8A3D1"/>
<stop offset="1" stop-color="#F0D8F5"/>
</linearGradient>
<linearGradient id="paint24_linear_103_934" x1="2282.01" y1="148.275" x2="2282.01" y2="85.4753" gradientUnits="userSpaceOnUse">
<stop stop-color="#F0D8F5"/>
<stop offset="0.458654" stop-color="#CFACD7"/>
<stop offset="1" stop-color="#A878B4"/>
</linearGradient>
<linearGradient id="paint25_linear_103_934" x1="2281.99" y1="214.232" x2="2281.99" y2="151.432" gradientUnits="userSpaceOnUse">
<stop stop-color="#A878B4"/>
<stop offset="0.445794" stop-color="#C8A3D1"/>
<stop offset="1" stop-color="#F0D8F5"/>
</linearGradient>
<linearGradient id="paint26_linear_103_934" x1="2202.5" y1="181" x2="2202.5" y2="118" gradientUnits="userSpaceOnUse">
<stop stop-color="#A878B4"/>
<stop offset="0.445794" stop-color="#C8A3D1"/>
<stop offset="1" stop-color="#F0D8F5"/>
</linearGradient>
<linearGradient id="paint27_linear_103_934" x1="2296.5" y1="181" x2="2296.5" y2="118" gradientUnits="userSpaceOnUse">
<stop stop-color="#F0D8F5"/>
<stop offset="0.458654" stop-color="#CFACD7"/>
<stop offset="1" stop-color="#A878B4"/>
</linearGradient>
<linearGradient id="paint28_linear_103_934" x1="2549.5" y1="228" x2="2549.5" y2="165" gradientUnits="userSpaceOnUse">
<stop stop-color="#A878B4"/>
<stop offset="0.445794" stop-color="#C8A3D1"/>
<stop offset="1" stop-color="#F0D8F5"/>
</linearGradient>
<linearGradient id="paint29_linear_103_934" x1="2549.5" y1="134" x2="2549.5" y2="71" gradientUnits="userSpaceOnUse">
<stop stop-color="#F0D8F5"/>
<stop offset="0.458654" stop-color="#CFACD7"/>
<stop offset="1" stop-color="#A878B4"/>
</linearGradient>
<linearGradient id="paint30_linear_103_934" x1="2516.85" y1="214.216" x2="2516.85" y2="151.416" gradientUnits="userSpaceOnUse">
<stop stop-color="#A878B4"/>
<stop offset="0.445794" stop-color="#C8A3D1"/>
<stop offset="1" stop-color="#F0D8F5"/>
</linearGradient>
<linearGradient id="paint31_linear_103_934" x1="2582.01" y1="148.275" x2="2582.01" y2="85.4753" gradientUnits="userSpaceOnUse">
<stop stop-color="#F0D8F5"/>
<stop offset="0.458654" stop-color="#CFACD7"/>
<stop offset="1" stop-color="#A878B4"/>
</linearGradient>
<linearGradient id="paint32_linear_103_934" x1="2581.99" y1="214.232" x2="2581.99" y2="151.432" gradientUnits="userSpaceOnUse">
<stop stop-color="#A878B4"/>
<stop offset="0.445794" stop-color="#C8A3D1"/>
<stop offset="1" stop-color="#F0D8F5"/>
</linearGradient>
<linearGradient id="paint33_linear_103_934" x1="2516.84" y1="148.292" x2="2516.84" y2="85.492" gradientUnits="userSpaceOnUse">
<stop stop-color="#F0D8F5"/>
<stop offset="0.458654" stop-color="#CFACD7"/>
<stop offset="1" stop-color="#A878B4"/>
</linearGradient>
<linearGradient id="paint34_linear_103_934" x1="2502.5" y1="181" x2="2502.5" y2="118" gradientUnits="userSpaceOnUse">
<stop stop-color="#A878B4"/>
<stop offset="0.445794" stop-color="#C8A3D1"/>
<stop offset="1" stop-color="#F0D8F5"/>
</linearGradient>
<linearGradient id="paint35_linear_103_934" x1="2596.5" y1="181" x2="2596.5" y2="118" gradientUnits="userSpaceOnUse">
<stop stop-color="#F0D8F5"/>
<stop offset="0.458654" stop-color="#CFACD7"/>
<stop offset="1" stop-color="#A878B4"/>
</linearGradient>
<linearGradient id="paint36_linear_103_934" x1="2849.5" y1="237" x2="2849.5" y2="174" gradientUnits="userSpaceOnUse">
<stop stop-color="#A878B4"/>
<stop offset="0.445794" stop-color="#C8A3D1"/>
<stop offset="1" stop-color="#F0D8F5"/>
</linearGradient>
<linearGradient id="paint37_linear_103_934" x1="2849.5" y1="123" x2="2849.5" y2="60" gradientUnits="userSpaceOnUse">
<stop stop-color="#F0D8F5"/>
<stop offset="0.458654" stop-color="#CFACD7"/>
<stop offset="1" stop-color="#A878B4"/>
</linearGradient>
<linearGradient id="paint38_linear_103_934" x1="2806.85" y1="223.216" x2="2806.85" y2="160.416" gradientUnits="userSpaceOnUse">
<stop stop-color="#A878B4"/>
<stop offset="0.445794" stop-color="#C8A3D1"/>
<stop offset="1" stop-color="#F0D8F5"/>
</linearGradient>
<linearGradient id="paint39_linear_103_934" x1="2892.01" y1="137.275" x2="2892.01" y2="74.4753" gradientUnits="userSpaceOnUse">
<stop stop-color="#F0D8F5"/>
<stop offset="0.458654" stop-color="#CFACD7"/>
<stop offset="1" stop-color="#A878B4"/>
</linearGradient>
<linearGradient id="paint40_linear_103_934" x1="2891.99" y1="223.232" x2="2891.99" y2="160.432" gradientUnits="userSpaceOnUse">
<stop stop-color="#A878B4"/>
<stop offset="0.445794" stop-color="#C8A3D1"/>
<stop offset="1" stop-color="#F0D8F5"/>
</linearGradient>
<linearGradient id="paint41_linear_103_934" x1="2806.84" y1="137.292" x2="2806.84" y2="74.492" gradientUnits="userSpaceOnUse">
<stop stop-color="#F0D8F5"/>
<stop offset="0.458654" stop-color="#CFACD7"/>
<stop offset="1" stop-color="#A878B4"/>
</linearGradient>
<linearGradient id="paint42_linear_103_934" x1="2792.5" y1="180" x2="2792.5" y2="117" gradientUnits="userSpaceOnUse">
<stop stop-color="#A878B4"/>
<stop offset="0.445794" stop-color="#C8A3D1"/>
<stop offset="1" stop-color="#F0D8F5"/>
</linearGradient>
<linearGradient id="paint43_linear_103_934" x1="2906.5" y1="180" x2="2906.5" y2="117" gradientUnits="userSpaceOnUse">
<stop stop-color="#F0D8F5"/>
<stop offset="0.458654" stop-color="#CFACD7"/>
<stop offset="1" stop-color="#A878B4"/>
</linearGradient>
<linearGradient id="paint44_linear_103_934" x1="3149.5" y1="247" x2="3149.5" y2="184" gradientUnits="userSpaceOnUse">
<stop stop-color="#A878B4"/>
<stop offset="0.445794" stop-color="#C8A3D1"/>
<stop offset="0.769231" stop-color="#F0D8F5" stop-opacity="0"/>
</linearGradient>
<linearGradient id="paint45_linear_103_934" x1="3149.5" y1="113" x2="3149.5" y2="50" gradientUnits="userSpaceOnUse">
<stop offset="0.230769" stop-color="#F0D8F5" stop-opacity="0"/>
<stop offset="0.458654" stop-color="#CFACD7"/>
<stop offset="1" stop-color="#A878B4"/>
</linearGradient>
<linearGradient id="paint46_linear_103_934" x1="3096.85" y1="233.216" x2="3096.85" y2="170.416" gradientUnits="userSpaceOnUse">
<stop stop-color="#A878B4"/>
<stop offset="0.445794" stop-color="#C8A3D1"/>
<stop offset="0.769231" stop-color="#F0D8F5" stop-opacity="0"/>
</linearGradient>
<linearGradient id="paint47_linear_103_934" x1="3202.01" y1="127.275" x2="3202.01" y2="64.4753" gradientUnits="userSpaceOnUse">
<stop offset="0.230769" stop-color="#F0D8F5" stop-opacity="0"/>
<stop offset="0.458654" stop-color="#CFACD7"/>
<stop offset="1" stop-color="#A878B4"/>
</linearGradient>
<linearGradient id="paint48_linear_103_934" x1="3201.99" y1="233.232" x2="3201.99" y2="170.432" gradientUnits="userSpaceOnUse">
<stop stop-color="#A878B4"/>
<stop offset="0.445794" stop-color="#C8A3D1"/>
<stop offset="0.769231" stop-color="#F0D8F5" stop-opacity="0"/>
</linearGradient>
<linearGradient id="paint49_linear_103_934" x1="3096.84" y1="127.292" x2="3096.84" y2="64.492" gradientUnits="userSpaceOnUse">
<stop offset="0.230769" stop-color="#F0D8F5" stop-opacity="0"/>
<stop offset="0.458654" stop-color="#CFACD7"/>
<stop offset="1" stop-color="#A878B4"/>
</linearGradient>
<linearGradient id="paint50_linear_103_934" x1="3082.5" y1="180" x2="3082.5" y2="117" gradientUnits="userSpaceOnUse">
<stop stop-color="#A878B4"/>
<stop offset="0.445794" stop-color="#C8A3D1"/>
<stop offset="0.769231" stop-color="#F0D8F5" stop-opacity="0"/>
</linearGradient>
<linearGradient id="paint51_linear_103_934" x1="3216.5" y1="180" x2="3216.5" y2="117" gradientUnits="userSpaceOnUse">
<stop offset="0.230769" stop-color="#F0D8F5" stop-opacity="0"/>
<stop offset="0.458654" stop-color="#CFACD7"/>
<stop offset="1" stop-color="#A878B4"/>
</linearGradient>
<linearGradient id="paint52_linear_103_934" x1="3449.5" y1="257" x2="3449.5" y2="194" gradientUnits="userSpaceOnUse">
<stop stop-color="#A878B4"/>
<stop offset="0.445794" stop-color="#C8A3D1" stop-opacity="0"/>
<stop offset="1" stop-color="#F0D8F5" stop-opacity="0"/>
</linearGradient>
<linearGradient id="paint53_linear_103_934" x1="3449.5" y1="103" x2="3449.5" y2="40" gradientUnits="userSpaceOnUse">
<stop stop-color="#F0D8F5" stop-opacity="0"/>
<stop offset="0.458654" stop-color="#CFACD7" stop-opacity="0"/>
<stop offset="1" stop-color="#A878B4"/>
</linearGradient>
<linearGradient id="paint54_linear_103_934" x1="3386.85" y1="243.216" x2="3386.85" y2="180.416" gradientUnits="userSpaceOnUse">
<stop stop-color="#A878B4"/>
<stop offset="0.445794" stop-color="#C8A3D1" stop-opacity="0"/>
<stop offset="1" stop-color="#F0D8F5" stop-opacity="0"/>
</linearGradient>
<linearGradient id="paint55_linear_103_934" x1="3512.01" y1="117.275" x2="3512.01" y2="54.4753" gradientUnits="userSpaceOnUse">
<stop stop-color="#F0D8F5" stop-opacity="0"/>
<stop offset="0.458654" stop-color="#CFACD7" stop-opacity="0"/>
<stop offset="1" stop-color="#A878B4"/>
</linearGradient>
<linearGradient id="paint56_linear_103_934" x1="3511.99" y1="243.232" x2="3511.99" y2="180.432" gradientUnits="userSpaceOnUse">
<stop stop-color="#A878B4"/>
<stop offset="0.445794" stop-color="#C8A3D1" stop-opacity="0"/>
<stop offset="1" stop-color="#F0D8F5" stop-opacity="0"/>
</linearGradient>
<linearGradient id="paint57_linear_103_934" x1="3386.84" y1="117.292" x2="3386.84" y2="54.492" gradientUnits="userSpaceOnUse">
<stop stop-color="#F0D8F5" stop-opacity="0"/>
<stop offset="0.458654" stop-color="#CFACD7" stop-opacity="0"/>
<stop offset="1" stop-color="#A878B4"/>
</linearGradient>
<linearGradient id="paint58_linear_103_934" x1="3372.5" y1="180" x2="3372.5" y2="117" gradientUnits="userSpaceOnUse">
<stop stop-color="#A878B4"/>
<stop offset="0.445794" stop-color="#C8A3D1" stop-opacity="0"/>
<stop offset="1" stop-color="#F0D8F5" stop-opacity="0"/>
</linearGradient>
<linearGradient id="paint59_linear_103_934" x1="3526.5" y1="180" x2="3526.5" y2="117" gradientUnits="userSpaceOnUse">
<stop stop-color="#F0D8F5" stop-opacity="0"/>
<stop offset="0.458654" stop-color="#CFACD7" stop-opacity="0"/>
<stop offset="1" stop-color="#A878B4"/>
</linearGradient>
</defs>
</svg>
